<svg width="20" height="20" viewBox="0 0 20 20" fill="none" xmlns="http://www.w3.org/2000/svg">
<path d="M10 9.16675H12.0833H14.1667" stroke="white" stroke-width="1.5" stroke-linecap="round" stroke-linejoin="round"/>
<path d="M10 5.83325H12.0833H14.1667" stroke="white" stroke-width="1.5" stroke-linecap="round" stroke-linejoin="round"/>
<path d="M6.66667 12.5V3.1C6.66667 2.76863 6.93529 2.5 7.26667 2.5H16.9C17.2314 2.5 17.5 2.76863 17.5 3.1V14.1667C17.5 16.0076 16.0076 17.5 14.1667 17.5V17.5" stroke="white" stroke-width="1.5" stroke-linecap="round" stroke-linejoin="round"/>
<path d="M4.49935 12.5H6.66602H10.2327C10.5641 12.5 10.8359 12.7682 10.8662 13.0982C10.9879 14.4253 11.5521 17.5 14.166 17.5H6.66602H5.49935C3.84249 17.5 2.49935 16.1569 2.49935 14.5C2.49935 13.3954 3.39478 12.5 4.49935 12.5Z" stroke="white" stroke-width="1.5" stroke-linecap="round" stroke-linejoin="round"/>
</svg>
